
<global>
amp_veltrack=0
ampeg_release=0.45
</global>

<group>
group_label=PP
lpc_hicc1=42
lpc_locc1=0

<region>
hikey=a3
hivel=127
lokey=g#3
loop_end=265621
loop_mode=loop_continuous
loop_start=57379
loop_xfade=27378
lovel=1
lpc=0BE2QUMvCMKOrERClU42wgkkBEIWC7LBoYSDQdwaU8FF/RtBRrOVwDkqhL5fw0pAlZtmwKsMPkA0ykO/licQwG+7lkDxGaHAOeCTQMRdNMDzhWq/X8eMQDZkd8AJy7Q/
lpc_rms=-28.98
offset=19544
pitch_keycenter=a3
sample=Soloviolin2_sul_ponticello_PP_A3.opus
</region>

<region>
hikey=a4
hivel=127
lokey=g#4
loop_end=266886
loop_mode=loop_continuous
loop_start=57652
loop_xfade=27509
lovel=1
lpc=UNcAQVYqqsEEJOBB66jBwRJnjkGmF0fB75QNQdV9+cD4RhRBCbIFwY9KjkDQ9XW/hBs9P4V0LMD46qFATcyowKf5kUCzgEjALtMCQEKrir82gyM/c4vtvjVRZT8xDRG/
lpc_rms=-31.51
offset=1254
pitch_keycenter=a4
sample=Soloviolin2_sul_ponticello_PP_A4.opus
</region>

<region>
hikey=a5
hivel=127
lokey=g#5
loop_end=244263
loop_mode=loop_continuous
loop_start=52765
loop_xfade=25177
lovel=1
lpc=fUnMQILSFcGu6jBBkFsTwSB2yEAcR4DAkWxcQIgaSsBNcplAtj9jwCmxbEBlIBzASP4dQH31RcBmtJs/X1tqP85Fsb/oJzZAr5MBwJJidECIyojAii+gQIOIicBo4RhA
lpc_rms=-32.33
offset=1456
pitch_keycenter=a5
sample=Soloviolin2_sul_ponticello_PP_A5.opus
</region>

<region>
hikey=a6
hivel=127
lokey=g#6
loop_end=256708
loop_mode=loop_continuous
loop_start=55454
loop_xfade=26460
lovel=1
lpc=dVcwQR2qVsFnrsZA3hJUvFCYhL/Zan1AQkBawIojxr/Ak4pAIivhv7dWrD/JNLe/hSiAQK/k38Bf66m/PzwuQVe6DsE+iqNAhhw+wMEwG78yY45AyPB+v3sNA8Aqkuo/
lpc_rms=-28.40
offset=2127
pitch_keycenter=a6
sample=Soloviolin2_sul_ponticello_PP_A6.opus
</region>

<region>
hikey=b3
hivel=127
lokey=a#3
loop_end=247630
loop_mode=loop_continuous
loop_start=53493
loop_xfade=25524
lovel=1
lpc=TjpaQa4NHcKJb09CvNcwwqHo8EGVd6jBLJ2YQeTekcEcMVpBDYHCwGCVQz++eSA+sv9/PzvkVsDh0uZADAAxwXJ3YkFk8GvBu4BEQYMCFsE/lLlAZ5Ckvzb/zD23A+q+
lpc_rms=-25.12
pitch_keycenter=b3
sample=Soloviolin2_sul_ponticello_PP_B3.opus
</region>

<region>
hikey=b4
hivel=127
lokey=a#4
loop_end=252240
loop_mode=loop_continuous
loop_start=54488
loop_xfade=25999
lovel=1
lpc=eCXWQOuAbsFAmoxB/zdiwXN1J0H6zNfAdHWEQA1Oc8AH2LJAz6OVwD+wPECPF+i+vvKtvrYuMD/tyqs/9yR3wCzbUkBakk6/owqVPp9aKT/Pdx7A3JAsQAkIjb6tZNe+
lpc_rms=-29.21
offset=1
pitch_keycenter=b4
sample=Soloviolin2_sul_ponticello_PP_B4.opus
</region>

<region>
hikey=b5
hivel=127
lokey=a#5
loop_end=288831
loop_mode=loop_continuous
loop_start=62393
loop_xfade=29771
lovel=1
lpc=IQG/QJHrxMCuo59AKGAfwDE4mT+sbje+T4SWP1uotr8yKgNAgxHqv1PUHUBmChfAwWtEQK2cGcBmfBdAzaHSv5sB5T8kKYi/5TB4P8ykOT5t67g+48Wcv8ydV0AlvnvA
lpc_rms=-32.38
offset=3664
pitch_keycenter=b5
sample=Soloviolin2_sul_ponticello_PP_B5.opus
</region>

<region>
hikey=E7
hivel=127
lokey=a#6
loop_end=280012
loop_mode=loop_continuous
loop_start=68468
loop_xfade=32669
lovel=1
lpc=3bTdQcF9CMKqlINBDKY0wPUU0UDJ5DHAeNilv9OzdMBCsa5ARIbYQH/wAcHhuBRB2ifwwfQi+UFMOQvBw3kwv4XZH8C0LiQ/RTRsQC7Gg0DNewrAAKn2wJ4A+UC+h07A
lpc_rms=-23.48
offset=5717
pitch_keycenter=B6
sample=Soloviolin2_sul_ponticello_PP_B6.opus
</region>

<region>
hikey=c#4
hivel=127
lokey=c4
loop_end=252365
loop_mode=loop_continuous
loop_start=54516
loop_xfade=26012
lovel=1
lpc=fdOCQQk5T8L8zJlCDzKNwoj+NkIjA8jBxmmDQRLXdMGVakNBT7yuwOD4G7/dvjBAywM2P38uysB3LzhB2xpxwUDCfkFxTlLBvhEcQUAq6MBeczpA/VdVP89Uib/PjHI9
lpc_rms=-26.26
offset=1
pitch_keycenter=c#4
sample=Soloviolin2_sul_ponticello_PP_C#4.opus
</region>

<region>
hikey=c#5
hivel=127
lokey=c5
loop_end=268619
loop_mode=loop_continuous
loop_start=58027
loop_xfade=27687
lovel=1
lpc=l0boQBdAj8FFiqxBV8iJwZ/vL0HEzL7Au6t5QKCmscB3q/BAqU7GwAPTiUCS3jrA1sq7Pz2sSL+NQII/Wgv/vjOsYz9TvBfAWvpBQDS+s7+5ho6+r9VVvpdFJT+yylg9
lpc_rms=-30.76
offset=520
pitch_keycenter=c#5
sample=Soloviolin2_sul_ponticello_PP_C#5.opus
</region>

<region>
hikey=c#6
hivel=127
lokey=c6
loop_end=279423
loop_mode=loop_continuous
loop_start=65574
loop_xfade=31288
lovel=1
lpc=qydyQQ/8aMG7z9NAcQBXwMnn8j95ppu/xE0LQEwGN79fmAc/AwtzP4saIz+vAbe/0d0vQB6Y7r8zd9Q/7oKzvFJenD9ASau/cS86QKC3M8BNrJBAsJQewd99/74Us51A
lpc_rms=-28.83
offset=380
pitch_keycenter=c#6
sample=Soloviolin2_sul_ponticello_PP_C#6.opus
</region>

<region>
hikey=d#4
hivel=127
lokey=d4
loop_end=251413
loop_mode=loop_continuous
loop_start=54310
loop_xfade=25914
lovel=1
lpc=PhxAQT8pCcLc7DhC5D8dwgCY2kF1h5DBRk8iQf9vssD7I85A1hEIwawW4UAxKl/AB9M1QFCtlsDi2K1A2/86wNNPgz/Pe3G/YrxhP9AMjj6q9Ja/dDj+P0Ecyr+nhzo/
lpc_rms=-27.98
offset=3263
pitch_keycenter=d#4
sample=Soloviolin2_sul_ponticello_PP_D#4.opus
</region>

<region>
hikey=d#5
hivel=127
lokey=d5
loop_end=269449
loop_mode=loop_continuous
loop_start=58206
loop_xfade=27773
lovel=1
lpc=J0qoQDAxQMF3B21BErtHwe6RD0FDkcrAfsCoQDeRisDI/IhAZ48wwPGshT/EyD+/fr3dPw8mTcCu3aFApxS0wB88p0CQsJPAgbuYQNnsrsDkH6xA7R+ZwEeEYkCF6Lu/
lpc_rms=-31.19
offset=3860
pitch_keycenter=d#5
sample=Soloviolin2_sul_ponticello_PP_D#5.opus
</region>

<region>
hikey=d#6
hivel=127
lokey=d6
loop_end=264729
loop_mode=loop_continuous
loop_start=52148
loop_xfade=24882
lovel=1
lpc=fHSrQZtSvsHiMBRBEWQoQCF2hMC7iJM+Sr1zP44qdj7F1jw/RPUFPibBmj8naM2++yHbP6QoaL/zghZA4DzSv677P0AFEz3A/WfYQHp6tcGWPmxBZhqNQP98I8FG99xA
lpc_rms=-28.22
pitch_keycenter=d#6
sample=Soloviolin2_sul_ponticello_PP_D#6.opus
</region>

<region>
hikey=f4
hivel=127
lokey=e4
loop_end=244604
loop_mode=loop_continuous
loop_start=52839
loop_xfade=25212
lovel=1
lpc=1UJTQWUMGMK1aExCv5gwwi1H+0FqYqPB1ctNQd7rOMHExVRB91YfwVCqX0D01TA/rdEOP46pqMBrdAZBFfjAwO7pPUBVSba/Bm5BP4Qtu776Bk2/rQiDQFH2pcDjOx5A
lpc_rms=-30.81
offset=3
pitch_keycenter=f4
sample=Soloviolin2_sul_ponticello_PP_F4.opus
</region>

<region>
hikey=f5
hivel=127
lokey=e5
loop_end=295736
loop_mode=loop_continuous
loop_start=63885
loop_xfade=30482
lovel=1
lpc=AjcHQd8itMGE9vNBtiTYwWAvikF/S8XA9VqmvyUdP0CGEg4+CHMewCGnEkAQK0e/zsbAPgzdN8DIU+xAfa8ZwSASG0FFYvrAQ4evQHB68L8oz+W/iJhoQFwNNsAivaw/
lpc_rms=-31.90
offset=2775
pitch_keycenter=f5
sample=Soloviolin2_sul_ponticello_PP_F5.opus
</region>

<region>
hikey=f6
hivel=127
lokey=e6
loop_end=271209
loop_mode=loop_continuous
loop_start=58586
loop_xfade=27954
lovel=1
lpc=g36DQV17wMH8UopBCrQZweXj8UAlaKHA8LQYQP6a6L9YRxlAlFuxv9jcBkDclKy/uf0cQDvd878caUhAvDVCwDePtkDCPqLBtlO7Qcd9QMEYgJxAQY4rwO/HuT+5YZI/
lpc_rms=-31.64
offset=2258
pitch_keycenter=f6
sample=Soloviolin2_sul_ponticello_PP_F6.opus
</region>

<region>
hivel=127
key=g3
loop_end=266455
loop_mode=loop_continuous
loop_start=54340
loop_xfade=25928
lovel=1
lpc=J61aQbpxJsIjum9Cv6xXwhhXFEIil9HBJKi+QWsBtsF6OpJBxEFGwYfK40DZmiLAs8wjP9thbb8UUStAB1amwD6LAEHBqfHAM6qTQPmOGcA8Msc/th+IvxXZRz8544S+
lpc_rms=-29.91
offset=1715
sample=Soloviolin2_sul_ponticello_PP_G3.opus
</region>

<region>
hikey=g4
hivel=127
lokey=f#4
loop_end=256477
loop_mode=loop_continuous
loop_start=55404
loop_xfade=26436
lovel=1
lpc=GKcYQayovMGrJuBBZvizwSANj0F6oFPBhOHkQP4Ad8BGEohAXf12wGi8HEDIDN+//pn7P0/6D8CKp09A0BBXwG+ug0B2I2XADiDhPxk75D2q6pq/8SLVP181Gb/Dwac7
lpc_rms=-28.75
offset=1957
pitch_keycenter=g4
sample=Soloviolin2_sul_ponticello_PP_G4.opus
</region>

<region>
hikey=g5
hivel=127
lokey=f#5
loop_end=242352
loop_mode=loop_continuous
loop_start=52353
loop_xfade=24980
lovel=1
lpc=1faaQJF1+8DLQAhB/NzVwOSJsUDee4XArkp6QN6dQcAX7xVA31I1v8/jEz41hME+4YAGQGO+SMBSP11AkuZUwMLGR0ClYy/A77hVQHAa2r9WWtW8458EQGPE9b8U17Q/
lpc_rms=-25.95
offset=61
pitch_keycenter=g5
sample=Soloviolin2_sul_ponticello_PP_G5.opus
</region>

<region>
hikey=g6
hivel=127
lokey=f#6
loop_end=242924
loop_mode=loop_continuous
loop_start=52476
loop_xfade=25039
lovel=1
lpc=5WUwQU8fP8Ews0VAxhIxQJJh67+ZoAE/npbBPqlwVD/kC0i/d75IP0HK3z51gS29AOW5P4Rzqb8kuWlAP6cwwW6Rz0Bw7Y9Ag2a7wJFQMkCN4LC9el/0PitpOb92mIY/
lpc_rms=-31.41
offset=2144
pitch_keycenter=g6
sample=Soloviolin2_sul_ponticello_PP_G6.opus
</region>
</group>

<group>
group_label=MF
lpc_hicc1=84
lpc_locc1=43

<region>
hikey=a3
hivel=127
lokey=g#3
loop_end=256772
loop_mode=loop_continuous
loop_start=55468
loop_xfade=26466
lovel=1
lpc=DNTiQF/NlMG2RsNBwd+jwR/sYkFLPjDBcXEzQd8RO8EyQCFBsxLawKIzjEBxHWLAXGRBQJejlr90AR6/5wWtP3qTnr/bBuM/1RjHvy694T9i/lPAO6WfQFGec8Dbxa8/
lpc_rms=-27.78
offset=1180
pitch_keycenter=a3
sample=Soloviolin2_sul_ponticello_MF_A3.opus
</region>

<region>
hikey=a4
hivel=127
lokey=g#4
loop_end=249787
loop_mode=loop_continuous
loop_start=53959
loop_xfade=25746
lovel=1
lpc=AUW9QAAfaMFme5dBVYmHwcvAXUG0/z7BzOMTQQ/7zsBR5p5A1KiMwKjeSUCGLH6/HtPavS6QYDwpaw4/5S8yvxbsrz8OIfO/DHwIQLX3ib/U0BS+6NJKPOclRD+WEki/
lpc_rms=-28.55
offset=333
pitch_keycenter=a4
sample=Soloviolin2_sul_ponticello_MF_A4.opus
</region>

<region>
hikey=a5
hivel=127
lokey=g#5
loop_end=239794
loop_mode=loop_continuous
loop_start=51800
loop_xfade=24716
lovel=1
lpc=+wGlQGBQscCwpJpA26ugv19orz/t1AS/YaEjQB8MC8CbghpAOPaGP7Xlgr9DwIQ/DD0OQDFI/78/1rY/evUCQCMQ3L+Hy7c/8S3hP+3MHL9tyqk76qEsQNHjCsC1ry9A
lpc_rms=-26.09
offset=3092
pitch_keycenter=a5
sample=Soloviolin2_sul_ponticello_MF_A5.opus
</region>

<region>
hikey=a6
hivel=127
lokey=g#6
loop_end=248099
loop_mode=loop_continuous
loop_start=53594
loop_xfade=25572
lovel=1
lpc=12FdQUztTcFRpkpAzSA7QG05LL8FvTK/rzrWvr5nB0BJD9G/cr+JPzJkLED/tMC/HFeIQM0f7cCRbZDAsplJQQPK28D/7Js/W9lSPkq1D0BhKt6+gCCrvt2CFkD7WPi/
lpc_rms=-22.78
offset=2000
pitch_keycenter=a6
sample=Soloviolin2_sul_ponticello_MF_A6.opus
</region>

<region>
hikey=b3
hivel=127
lokey=a#3
loop_end=250973
loop_mode=loop_continuous
loop_start=54215
loop_xfade=25869
lovel=1
lpc=0xIdQVzL4MHXyx5CWS0ZwrFv7kHCgKHBDfJRQf0uGMHIOwxB6Xj7wCSRoUBy9Dy/ySoZwGFOTkADoqu/T7kowCGu2UANoerAHOGKQKCj0L6sgjHAOF+RQEitV8B6ypI/
lpc_rms=-24.68
offset=2500
pitch_keycenter=b3
sample=Soloviolin2_sul_ponticello_MF_B3.opus
</region>

<region>
hikey=b4
hivel=127
lokey=a#4
loop_end=301913
loop_mode=loop_continuous
loop_start=65219
loop_xfade=31119
lovel=1
lpc=lbGOQN2aIcErzEVBP9ciwf6z4UBwSXnA7rq/P+uNhL61Iok/8YYCwBElAEDOWYy/lQCgPwtz7793/QBAcMu1v5cfnD/7Zo2/XJVoPwAG8D55tt2/TAmtP2kj971ODYy+
lpc_rms=-28.59
offset=196
pitch_keycenter=b4
sample=Soloviolin2_sul_ponticello_MF_B4.opus
</region>

<region>
hikey=b5
hivel=127
lokey=a#5
loop_end=241938
loop_mode=loop_continuous
loop_start=52263
loop_xfade=24937
lovel=1
lpc=xC/HQKYRvMBhzYNAo3GJv4LFQz/kLxK/TpHcP9jHG793oEA9cGWtP3sKiT0HU66/FAdGQACczr/I+YY+RtvCP/xz2L6E//O9J+OzPzBsxb6pLps+W0A0O8R4HUBg4GTA
lpc_rms=-24.49
offset=95
pitch_keycenter=b5
sample=Soloviolin2_sul_ponticello_MF_B5.opus
</region>

<region>
hikey=E7
hivel=127
lokey=a#6
loop_end=428548
loop_mode=loop_continuous
loop_start=92575
loop_xfade=44172
lovel=1
lpc=VwRhQY0AlMG8/DtBYtOZwJeooD+P8b4/aOAowBtEQMAS0LRAm6Zpv9nKFcBKQbJAK/x+wTbshUGANPTA3IuYP8hO1T+WzT3AJOMsQJxAaUB7CpjAHYN/vrLTGkBQ8jzA
lpc_rms=-25.19
offset=28
pitch_keycenter=B6
sample=Soloviolin2_sul_ponticello_MF_B6.opus
</region>

<region>
hikey=c#4
hivel=127
lokey=c4
loop_end=257317
loop_mode=loop_continuous
loop_start=55585
loop_xfade=26522
lovel=1
lpc=ysNKQaWKE8LY+UxCAFk1wuEh6EHB1o7BnsiFQQb7ocGDpaFBjJtvwdS0A0HtjYXApbuCQL+6fcAMDnVANNqOwIN2mUC1YHPAv4pYQHVgKMAnaKS+L7POP+4tNr9iWeG8
lpc_rms=-22.66
offset=1912
pitch_keycenter=c#4
sample=Soloviolin2_sul_ponticello_MF_C#4.opus
</region>

<region>
hikey=c#5
hivel=127
lokey=c5
loop_end=249025
loop_mode=loop_continuous
loop_start=53794
loop_xfade=25668
lovel=1
lpc=OawLQS3vqsEwydRBYIbAweuYkUE1vEDBEqzAQCfq3L+7Fcs+JuolvyugRj49idA/AZhbvy+Z7r+GS7JA4l/+wKLH+0CvudTAwfKhQH52K8CR5AQ/YLr+vkKeNz9/1Y0+
lpc_rms=-23.33
offset=1693
pitch_keycenter=c#5
sample=Soloviolin2_sul_ponticello_MF_C#5.opus
</region>

<region>
hikey=c#6
hivel=127
lokey=c6
loop_end=250702
loop_mode=loop_continuous
loop_start=54156
loop_xfade=25841
lovel=1
lpc=4+WGQVXFGcEck+u/4/79PsJykD8ORUi/eainP5FJg715lJQ/taXEvn8arT8+ste+QYPBP0ERLL8yKrQ/wGgCv1EswT+7QVG/1sANQKrKE8DWeZlAfWgTwWrB8sDJ5yRB
lpc_rms=-22.99
pitch_keycenter=c#6
sample=Soloviolin2_sul_ponticello_MF_C#6.opus
</region>

<region>
hikey=d#4
hivel=127
lokey=d4
loop_end=247450
loop_mode=loop_continuous
loop_start=53454
loop_xfade=25505
lovel=1
lpc=3tjmQE0ImsHrjc5BDxq5wdcggUE46S/BWoMAQWB7xsB+qZ1A57xAwPHwtr1/OwNAknGqv5fMdr0a8io/Dy+CPTFHFr9kEok/49Frv2LkYj5swXa++5KMPtORv758rpU+
lpc_rms=-25.86
offset=1242
pitch_keycenter=d#4
sample=Soloviolin2_sul_ponticello_MF_D#4.opus
</region>

<region>
hikey=d#5
hivel=127
lokey=d5
loop_end=249858
loop_mode=loop_continuous
loop_start=53974
loop_xfade=25754
lovel=1
lpc=E6GBQMzlBMEsoRpBsT4Cwf3PwkCDhXvAbLwTQNaY8r9MTA5AcOxQv37LcL8WenA/q4UqP4U7qb+EXOo/2oLxv9WG7z8whP6/LBQXQNQpBMDFZEs/DKEBPmp5XL3YwHA+
lpc_rms=-26.62
offset=1
pitch_keycenter=d#5
sample=Soloviolin2_sul_ponticello_MF_D#5.opus
</region>

<region>
hikey=d#6
hivel=127
lokey=d6
loop_end=243604
loop_mode=loop_continuous
loop_start=52623
loop_xfade=25109
lovel=1
lpc=zIQuQS/IPcF2XIlA+zdfPxnAzb/yPby+Wlq3P0BQf79dBKo/O7fSvue/Zj+qUPS+1fCUP/gp8b4c1Do/sIltvXuCej9sIaO/sfBRQF2uMsFgduJAYKUhQHiSkcCxvklA
lpc_rms=-28.51
offset=113
pitch_keycenter=d#6
sample=Soloviolin2_sul_ponticello_MF_D#6.opus
</region>

<region>
hikey=f4
hivel=127
lokey=e4
loop_end=247604
loop_mode=loop_continuous
loop_start=53487
loop_xfade=25521
lovel=1
lpc=14H/QMYWrMEXnehBrxnawXIvqkHgPX3B9DctQerc/sDk1wdBeYsOwWeVzUA2ljzAFKPAPx2CAMCKH1FA0VVzwMuFhEDQUVrAPL4BQHWNqD0pCzfAKWKLQO1nacAlFLA/
lpc_rms=-26.48
offset=36
pitch_keycenter=f4
sample=Soloviolin2_sul_ponticello_MF_F4.opus
</region>

<region>
hikey=f5
hivel=127
lokey=e5
loop_end=241420
loop_mode=loop_continuous
loop_start=52151
loop_xfade=24884
lovel=1
lpc=/xRXQN+Mp8BapIhAxAziv1UFjT/q3P29eaqLv8DBlD+xJoM+9i+Sv0ZPwD/faMG/pJTFPyob0L+pT8I/m3MMveZSqb5xw+C+bUmyPysEjL7ktr8+XL3Pvx6xC0ArXji/
lpc_rms=-26.07
offset=5897
pitch_keycenter=f5
sample=Soloviolin2_sul_ponticello_MF_F5.opus
</region>

<region>
hikey=f6
hivel=127
lokey=e6
loop_end=237972
loop_mode=loop_continuous
loop_start=51406
loop_xfade=24528
lovel=1
lpc=nzZ8QXu9ssH0a2VBJNadwEPBe746lcpAbSPAwJXjAUCI2B+/aDnPP6YXuL4IsKA/Xt5iPtGv/j1j3MQ/ZkCqvxDvjEDYRI/BkUKgQTtK88D1LMm+wsCcQPuI6sBtD7JA
lpc_rms=-25.97
offset=6106
pitch_keycenter=f6
sample=Soloviolin2_sul_ponticello_MF_F6.opus
</region>

<region>
hivel=127
key=g3
loop_end=264793
loop_mode=loop_continuous
loop_start=57200
loop_xfade=27293
lovel=1
lpc=f1JPQajjE8LXfEhCYGgrwo9h4UHo3Z7BWjmfQaZCrsEWqZlBm1VMwfW0yEAGoxfAeYX2PyuFbL/LdQHARXWqQG0QtMBFootAIEISwHtJ/z/Yh5rAnHfiQJzArsCRf/M/
lpc_rms=-25.24
offset=261
sample=Soloviolin2_sul_ponticello_MF_G3.opus
</region>

<region>
hikey=g4
hivel=127
lokey=f#4
loop_end=248406
loop_mode=loop_continuous
loop_start=53660
loop_xfade=25604
lovel=1
lpc=17zYQLMIhcEFVKFBgtaGwX6NSEEDfRXBNRXfQLNC3MAs5vFALEnswFQKlUAhCwS/6cIBwEQ1J0AcnDjA4X9rQC+NWcADli5AE04AwLFV5z+83kfAzE9/QAxzJcABdE4/
lpc_rms=-26.26
offset=843
pitch_keycenter=g4
sample=Soloviolin2_sul_ponticello_MF_G4.opus
</region>

<region>
hikey=g5
hivel=127
lokey=f#5
loop_end=281434
loop_mode=loop_continuous
loop_start=60795
loop_xfade=29008
lovel=1
lpc=J+BAQFDgbsC3zCdA77bov3VkHUCO+Wq/areTvcT8DL7zQx4/VhgRPO/orjtx/1A+BbwWP0JDob/cG/Q/Hqupvzys0z/CWc+/eQRnP8m/jT8Q1XK/tq0WPz6DOb+qcWw/
lpc_rms=-25.73
offset=680
pitch_keycenter=g5
sample=Soloviolin2_sul_ponticello_MF_G5.opus
</region>

<region>
hikey=g6
hivel=127
lokey=f#6
loop_end=258266
loop_mode=loop_continuous
loop_start=55790
loop_xfade=26620
lovel=1
lpc=XJ8cQfT6JsEGMYpAjHjfvwpRqz9y7Hg/xGC7v/HKqT075o0/u2xpva7sVz/Zt8m+ZOm/P+XCu7+hJmZAWEsnwe7W2UCU/6Q/yG/cv6jt5T9+ihbAAfYEQF/QNT8oNSC/
lpc_rms=-27.03
offset=860
pitch_keycenter=g6
sample=Soloviolin2_sul_ponticello_MF_G6.opus
</region>
</group>

<group>
group_label=FF
lpc_hicc1=127
lpc_locc1=85

<region>
hikey=a3
hivel=127
lokey=g#3
loop_end=234445
loop_mode=loop_continuous
loop_start=50645
loop_xfade=24165
lovel=1
lpc=eyTWQP/LlcHOld5B/cLVwaV2nkFEilHBX/IUQYFG18Dw5KFAh9VlwPzp3T8EhEg+ZSKZvvOHYL/fRKk/wGgpvxv18z01tU++r3NPP9xrmL9Atbk/nMeyv5cgcj9rKoK+
lpc_rms=-21.94
offset=33
pitch_keycenter=a3
sample=Soloviolin2_sul_ponticello_FF_A3.opus
</region>

<region>
hikey=a4
hivel=127
lokey=g#4
loop_end=247951
loop_mode=loop_continuous
loop_start=53562
loop_xfade=25557
lovel=1
lpc=OtGHQDfRDMGAWCJBcK/0wMRDy0CF7r3ArAOiQHznZcCU4GhA1DJ7wNgdPEBycbu/bC+mPwSRkr8u3pI/J3tzv7ePzz9Rpvq/C80QQB5T4b+KjKw/mX1Pv1gfFD8b/jG+
lpc_rms=-24.97
offset=2223
pitch_keycenter=a4
sample=Soloviolin2_sul_ponticello_FF_A4.opus
</region>

<region>
hikey=a5
hivel=127
lokey=g#5
loop_end=248202
loop_mode=loop_continuous
loop_start=53616
loop_xfade=25583
lovel=1
lpc=P0VUQG5DfsCCTIpANfIGwGKDvD/xShk/YBxAv0aJuj+bY5i9HoowPi6NHj9AS/G9/XXGPybDh7/zhoU/64ZTP1gatr5oLGI/dI6LPcgQNj8ITA+8my01P7RFwb4mh6Y/
lpc_rms=-20.53
offset=146
pitch_keycenter=a5
sample=Soloviolin2_sul_ponticello_FF_A5.opus
</region>

<region>
hikey=a6
hivel=127
lokey=g#6
loop_end=262261
loop_mode=loop_continuous
loop_start=56653
loop_xfade=27032
lovel=1
lpc=X45MQDpLlMCyHo1A6c0twLp1D0D546O/28RBP7CGDj3de8e+WM40P8itLL8+hYo/Kc6zvo3Qzb0pji6/GB28P/fZQ791WHc+yTibPuWuDL/PdWw/N684vz7pOj/cVJS9
lpc_rms=-24.94
pitch_keycenter=a6
sample=Soloviolin2_sul_ponticello_FF_A6.opus
</region>

<region>
hikey=b3
hivel=127
lokey=a#3
loop_end=258460
loop_mode=loop_continuous
loop_start=55832
loop_xfade=26640
lovel=1
lpc=YHSwQKKZbcFe8qtBEwelwe4NcUFIvSHB1l3+QKbB+cAvpPFAbGTOwIKUkkAgEEXAQl8VQEVXA8As1Ls/ZenHvhZ5Bb4HOvu9HGygP0EWGMB10UtAxcxUwKjnDEAHLVK/
lpc_rms=-21.00
offset=1463
pitch_keycenter=b3
sample=Soloviolin2_sul_ponticello_FF_B3.opus
</region>

<region>
hikey=b4
hivel=127
lokey=a#4
loop_end=270240
loop_mode=loop_continuous
loop_start=58377
loop_xfade=27854
lovel=1
lpc=JLp2QMBX08BCKcxAGViDwNthdkAM3C3A3tq4PyFkor4QVRw/Jb+iPZAjCb5HgoC+t4WMP1hgtL69qvI+7y1Wv9YUoD8TTdy+iXZCPxc4B7/6dQY/wdEZv6+ThD8Puhu/
lpc_rms=-26.59
offset=3
pitch_keycenter=b4
sample=Soloviolin2_sul_ponticello_FF_B4.opus
</region>

<region>
hikey=b5
hivel=127
lokey=a#5
loop_end=246278
loop_mode=loop_continuous
loop_start=53201
loop_xfade=25385
lovel=1
lpc=kxiWQD1EL8AwV31AzMTFv1jUQkCCCJi+dRfxP8mQtj4ueY8/gjrMPyOTAL4RqR9AGOwdv1PdG0BbF1W9hAbFP0J+lj9spI8+Bu7xP6QYLb4egzJAwReOv+RiTECus6y/
lpc_rms=-19.36
offset=48
pitch_keycenter=b5
sample=Soloviolin2_sul_ponticello_FF_B5.opus
</region>

<region>
hikey=E7
hivel=127
lokey=a#6
loop_end=293007
loop_mode=loop_continuous
loop_start=63295
loop_xfade=30201
lovel=1
lpc=y5K9QI4i6cAsubNANWHwv2xy1T+QgX+/SVIMQBy+H796IQu/hU40QHy7EMAPJWdAHalvwH/v7T8lfmE/YF8lv9Cowj7lyhY/XarnPmBYhb+ea8M/DGEHv8vFwz4W9x+/
lpc_rms=-18.55
offset=117
pitch_keycenter=B6
sample=Soloviolin2_sul_ponticello_FF_B6.opus
</region>

<region>
hikey=c#4
hivel=127
lokey=c4
loop_end=295229
loop_mode=loop_continuous
loop_start=63775
loop_xfade=30430
lovel=1
lpc=TTLIQNpEicHEfcdBKFvGwVxVnkHnx3TBnaxOQVI1QMFcozFBtW4RwfbRu0AkxG/AMEsuQKjs0r9lWee9ObK4P9Msp7+MB1A/xDuTvky+hj42tpy9J8zTviUaUz8ThQm/
lpc_rms=-21.22
offset=1
pitch_keycenter=c#4
sample=Soloviolin2_sul_ponticello_FF_C#4.opus
</region>

<region>
hikey=c#5
hivel=127
lokey=c5
loop_end=249983
loop_mode=loop_continuous
loop_start=54001
loop_xfade=25766
lovel=1
lpc=UkhnQHLRqsBiS6VA3uRzwG90O0Bc2q+/n82cPWRt2z4aDF29PPbePbb6673u3Ck98YxQPmYakb4QYEU/Hpt9vztMyD9Ckpi/S2NXP5M5wjxJ2Vq+BBQUvxW4WD28f1c+
lpc_rms=-27.69
offset=2774
pitch_keycenter=c#5
sample=Soloviolin2_sul_ponticello_FF_C#5.opus
</region>

<region>
hikey=c#6
hivel=127
lokey=c6
loop_end=248988
loop_mode=loop_continuous
loop_start=53786
loop_xfade=25664
lovel=1
lpc=/zAhQeQypcDcY4Q/Zve1vgsNsT/naEg+COmDP3s/uD6xToU/ZHS0PmCRjz+G9IU9sT2zP2+N5Dx34oE/KH36PpbvbD8vmnY+wJ6zP3Km+b4CvjpAxcKpwD9fY8ByiY9A
lpc_rms=-18.16
offset=99
pitch_keycenter=c#6
sample=Soloviolin2_sul_ponticello_FF_C#6.opus
</region>

<region>
hikey=d#4
hivel=127
lokey=d4
loop_end=254541
loop_mode=loop_continuous
loop_start=54986
loop_xfade=26236
lovel=1
lpc=Mi+kQGdxOMEQQVdBu4wowa0MBEGvtvPAAa3BQB+Ih8ACGY1Aq5icwLlRSEAZQ82/EB6dP2Lhzb+SVbs/5onZv9JU+z9rk5+/H3IxP/ReEr//sk8/tO7gvmVShD68cgi9
lpc_rms=-22.90
offset=1103
pitch_keycenter=d#4
sample=Soloviolin2_sul_ponticello_FF_D#4.opus
</region>

<region>
hikey=d#5
hivel=127
lokey=d5
loop_end=244834
loop_mode=loop_continuous
loop_start=52889
loop_xfade=25236
lovel=1
lpc=8EKuQEZyGsE2nCdB7lX6wM5X+ECBrrLAnZ6BQBL+kb9n2/c+4fzdP4Evwr/7DA9AOeyrv2Lqcz5sCSVAPPBVwF9UikABNZDA97WbQBX7dMBv3UlA+h3rv+bmkD+qWKi+
lpc_rms=-22.57
offset=692
pitch_keycenter=d#5
sample=Soloviolin2_sul_ponticello_FF_D#5.opus
</region>

<region>
hikey=d#6
hivel=127
lokey=d6
loop_end=258662
loop_mode=loop_continuous
loop_start=55876
loop_xfade=26661
lovel=1
lpc=MvpJQXM8UsGM09NAb6+SPTXUbD+fIiK/+f3CP4tDJ7+aSZo/o2JOvvHhjT/KbgG/qwywP9Dd/r6BWaE/5S4Iv5mi3T9sj92/e6aHQPFCVsE6pwxB5vxaPkPOXsBtUHg/
lpc_rms=-18.37
offset=1
pitch_keycenter=d#6
sample=Soloviolin2_sul_ponticello_FF_D#6.opus
</region>

<region>
hikey=f4
hivel=127
lokey=e4
loop_end=240156
loop_mode=loop_continuous
loop_start=51878
loop_xfade=24754
lovel=1
lpc=+ZaHQNhVFcFMHCpBddMHwYp71EBJ2bjAHaVzQOmZ5r9Q4Ic/EgmCvx5/Y756iJc/q2duv720cD6zpyc+L/oOv7ZKqT/mrbu/nP6yP1frcr+3OXE+eL3rPm64E7/S7y8+
lpc_rms=-22.95
offset=243
pitch_keycenter=f4
sample=Soloviolin2_sul_ponticello_FF_F4.opus
</region>

<region>
hikey=f5
hivel=127
lokey=e5
loop_end=243903
loop_mode=loop_continuous
loop_start=52688
loop_xfade=25140
lovel=1
lpc=ESlwQF00vMBP76BAuqRpwLJvYEAMFei/Bo5ZP0krLr81dMQ+lW+TP0/TBMA4/uA/wVyHv930mT8Ljry/gr6YPzF6wL7/BPg+MKHGPfeeIr/c7zK+pf1+P/ykAb9XoO29
lpc_rms=-29.24
offset=892
pitch_keycenter=f5
sample=Soloviolin2_sul_ponticello_FF_F5.opus
</region>

<region>
hikey=f6
hivel=127
lokey=e6
loop_end=248882
loop_mode=loop_continuous
loop_start=53763
loop_xfade=25653
lovel=1
lpc=3zYcQbeU+cAiwm9AFtQzvvaTFT/nQRlAgNYWvo71Mj659l0//WWVPgNqID8SNq4+trE9P5niRD6jY34/Z2fNvryWEkAO6BnBsYHBQOtdBL+TUaa/puaxP6SGLsCgv2c/
lpc_rms=-21.06
offset=7910
pitch_keycenter=f6
sample=Soloviolin2_sul_ponticello_FF_F6.opus
</region>

<region>
hivel=127
key=g3
loop_end=255816
loop_mode=loop_continuous
loop_start=55261
loop_xfade=26368
lovel=1
lpc=prHHQFqnhsHrzr5BQzy2wWcfkEGNU17Bt0cyQWOwEsHnZuxAaxS0wBauhEDQAl3APv1WQKkPCcDn5o0+HVobP6QUWL6x//6+9C3mPxckLsC8APA/wqlEuzxIfb9Vzds+
lpc_rms=-22.68
offset=942
sample=Soloviolin2_sul_ponticello_FF_G3.opus
</region>

<region>
hikey=g4
hivel=127
lokey=f#4
loop_end=285121
loop_mode=loop_continuous
loop_start=61592
loop_xfade=29388
lovel=1
lpc=2+hxQJxt/cBFBBFBZ7PmwF5Is0CqG5XAOb9XQAMQIsBexkhAQcdhwIZqDEA911a/BISlPmT4j76yPV87cdyfvsVCXT/h+Cu/Z0WGPoTJWz5O8Yu+ZHckP/mCKb8ewcc+
lpc_rms=-25.22
offset=477
pitch_keycenter=g4
sample=Soloviolin2_sul_ponticello_FF_G4.opus
</region>

<region>
hikey=g5
hivel=127
lokey=f#5
loop_end=250023
loop_mode=loop_continuous
loop_start=54010
loop_xfade=25771
lovel=1
lpc=4dEJQEAvLMDOjyVA2PHtvwIf6D+mBpq/YftcPxW65b4O9mE+hXV2vWe7u71jQZ09E9krP9elbr+yElw/U6QOv2DBEz+qzxy/audWP4ATUr6xgwy+l2V0PtuNXr4OIUM+
lpc_rms=-23.37
offset=1
pitch_keycenter=g5
sample=Soloviolin2_sul_ponticello_FF_G5.opus
</region>

<region>
hikey=g6
hivel=127
lokey=f#6
loop_end=241022
loop_mode=loop_continuous
loop_start=52065
loop_xfade=24843
lovel=1
lpc=U1A/QeW2MMG5dKZA6Jc5QKaHkb7BvQ4/Do4KQJTRaz/dKgW/4XEyP9AdjT90aCC+X8DwP2onmb/QmHpA5ecswU+YmkB+/mVAO8bJwFDj3j9UzYO+aeb6vv5tt78U/q8/
lpc_rms=-17.43
offset=182
pitch_keycenter=g6
sample=Soloviolin2_sul_ponticello_FF_G6.opus
</region>
</group>